<svg width="10" height="31" viewBox="0 0 10 31" fill="none" xmlns="http://www.w3.org/2000/svg">
<path d="M9.91859 19.5963C9.53936 13.3167 8.05549 6.18661 5.70557 0.793027C5.86224 0.467744 5.62252 -0.0980887 5.30794 0.0146171C1.61389 1.3378 0.57458 10.5527 0.194666 14.9513C-0.224443 19.8031 -0.341121 28.9853 3.88281 30.587C5.62332 31.2473 7.68944 30.3973 8.8001 28.3388C10.0958 25.9374 10.0926 22.4773 9.91859 19.5963ZM8.4203 15.236C7.27965 14.9839 5.68955 15.4665 5.01334 15.6008C4.73966 15.6551 4.47313 15.721 4.20637 15.787C4.23784 11.2192 4.65695 6.61835 5.07946 2.09581C6.07719 4.86722 7.58583 10.0997 8.4203 15.236ZM7.80225 16.8904C7.76658 16.9819 7.73488 17.0651 7.70921 17.1385C7.62695 17.0477 7.5464 16.9514 7.46358 16.8594C7.57606 16.869 7.6891 16.8793 7.80225 16.8904ZM1.19103 15.4226C1.45063 11.5963 2.16831 4.9508 4.4913 1.98211C3.51016 6.31248 3.03039 11.2283 3.07662 16.1067C3.01346 16.1271 2.95177 16.1534 2.88883 16.1746C2.77658 16.1233 2.65115 16.1264 2.5305 16.2166C2.4729 16.2599 2.42086 16.3163 2.36508 16.364C1.94336 16.5238 1.52425 16.6957 1.10889 16.8946C1.13332 16.3402 1.16274 15.8398 1.19103 15.4226ZM4.45529 29.2061C2.11253 28.9876 1.321 25.2999 1.11548 21.6197C1.17115 21.6637 1.23125 21.6925 1.29373 21.7041C1.30657 21.7315 1.3302 21.7456 1.35599 21.7216C1.36156 21.7165 1.36758 21.7125 1.37326 21.7073C1.48244 21.6994 1.59389 21.6367 1.69376 21.4914C1.71921 21.4542 1.74488 21.4162 1.77044 21.3785C2.24341 21.0228 2.74784 20.7645 3.26613 20.5694C3.50153 23.5943 3.9479 26.5298 4.62161 29.215C4.56594 29.2115 4.51221 29.2113 4.45529 29.2061ZM5.65093 29.1565C5.64695 29.1366 5.64524 29.1179 5.64002 29.0973C4.8903 26.2015 4.48926 23.242 4.3118 20.2525C4.59844 20.1829 4.8853 20.1225 5.16944 20.0695C6.4863 19.8238 7.70852 20.2854 8.98164 20.2115C9.23079 24.8512 8.48255 28.6093 5.65093 29.1565Z" fill="white"/>
</svg>
